<?xml version="1.0" encoding="UTF-8"?>
<svg width="540px" height="299px" viewBox="0 0 540 299" version="1.1" xmlns="http://www.w3.org/2000/svg" xmlns:xlink="http://www.w3.org/1999/xlink">
    <!-- Generator: Sketch 52.2 (67145) - http://www.bohemiancoding.com/sketch -->
    <title>UPC-A</title>
    <desc>Created with Sketch.</desc>
    <g id="UPC-A" stroke="none" stroke-width="1" fill="none" fill-rule="evenodd" transform="translate(0.000000, 0.519544)">
        <g id="UPC_A" transform="translate(88.500000, 41.000000)" fill="#000000">
            <polygon id="Fill-1" points="29.2788505 215.509056 32.0021963 215.509056 32.0021963 0.347588785 29.2788505 0.347588785"></polygon>
            <polygon id="Fill-2" points="35.6962056 215.509056 38.4195514 215.509056 38.4195514 0.347588785 35.6962056 0.347588785"></polygon>
            <polygon id="Fill-3" points="41.8220187 215.509056 48.0438692 215.509056 48.0438692 0.347588785 41.8220187 0.347588785"></polygon>
            <polygon id="Fill-4" points="51.4463364 215.509056 60.8785794 215.509056 60.8785794 0.347588785 51.4463364 0.347588785"></polygon>
            <polygon id="Fill-5" points="68.0710935 199.467383 73.7098598 199.467383 73.7098598 0.347588785 68.0710935 0.347588785"></polygon>
            <polygon id="Fill-6" points="80.9058037 199.467383 83.3376075 199.467383 83.3376075 0.347588785 80.9058037 0.347588785"></polygon>
            <polygon id="Fill-7" points="90.5301215 199.467383 92.9619252 199.467383 92.9619252 0.347588785 90.5301215 0.347588785"></polygon>
            <polygon id="Fill-8" points="100.157869 199.467383 105.796636 199.467383 105.796636 0.347588785 100.157869 0.347588785"></polygon>
            <polygon id="Fill-9" points="109.490645 199.467383 121.838308 199.467383 121.838308 0.347588785 109.490645 0.347588785"></polygon>
            <polygon id="Fill-10" points="125.532318 199.467383 128.255664 199.467383 128.255664 0.347588785 125.532318 0.347588785"></polygon>
            <polygon id="Fill-11" points="131.949673 199.467383 134.673019 199.467383 134.673019 0.347588785 131.949673 0.347588785"></polygon>
            <polygon id="Fill-12" points="144.784383 199.467383 150.714692 199.467383 150.714692 0.347588785 144.784383 0.347588785"></polygon>
            <polygon id="Fill-13" points="154.408701 199.467383 160.339009 199.467383 160.339009 0.347588785 154.408701 0.347588785"></polygon>
            <polygon id="Fill-14" points="170.450374 199.467383 173.17372 199.467383 173.17372 0.347588785 170.450374 0.347588785"></polygon>
            <polygon id="Fill-15" points="176.867729 215.509056 179.591075 215.509056 179.591075 0.347588785 176.867729 0.347588785"></polygon>
            <polygon id="Fill-16" points="183.285084 215.509056 186.00843 215.509056 186.00843 0.347588785 183.285084 0.347588785"></polygon>
            <polygon id="Fill-17" points="189.702439 199.467383 198.84314 199.467383 198.84314 0.347588785 189.702439 0.347588785"></polygon>
            <polygon id="Fill-18" points="205.744112 199.467383 208.467458 199.467383 208.467458 0.347588785 205.744112 0.347588785"></polygon>
            <polygon id="Fill-19" points="212.161467 199.467383 221.302168 199.467383 221.302168 0.347588785 212.161467 0.347588785"></polygon>
            <polygon id="Fill-20" points="228.20314 199.467383 230.926486 199.467383 230.926486 0.347588785 228.20314 0.347588785"></polygon>
            <polygon id="Fill-21" points="234.620495 199.467383 243.761196 199.467383 243.761196 0.347588785 234.620495 0.347588785"></polygon>
            <polygon id="Fill-22" points="250.662168 199.467383 253.385514 199.467383 253.385514 0.347588785 250.662168 0.347588785"></polygon>
            <polygon id="Fill-23" points="257.079523 199.467383 266.220224 199.467383 266.220224 0.347588785 257.079523 0.347588785"></polygon>
            <polygon id="Fill-24" points="273.121196 199.467383 275.844542 199.467383 275.844542 0.347588785 273.121196 0.347588785"></polygon>
            <polygon id="Fill-25" points="279.538551 199.467383 288.679252 199.467383 288.679252 0.347588785 279.538551 0.347588785"></polygon>
            <polygon id="Fill-26" points="295.580224 199.467383 298.30357 199.467383 298.30357 0.347588785 295.580224 0.347588785"></polygon>
            <polygon id="Fill-27" points="301.997579 215.509056 311.13828 215.509056 311.13828 0.347588785 301.997579 0.347588785"></polygon>
            <polygon id="Fill-28" points="314.83229 215.509056 317.555636 215.509056 317.555636 0.347588785 314.83229 0.347588785"></polygon>
            <polygon id="Fill-29" points="324.456607 215.509056 327.179953 215.509056 327.179953 0.347588785 324.456607 0.347588785"></polygon>
            <polygon id="Fill-30" points="330.873963 215.509056 333.597308 215.509056 333.597308 0.347588785 330.873963 0.347588785"></polygon>
            <path d="M6.40137383,229.389888 C4.59724299,229.389888 2.74509346,228.501542 2.74509346,226.333841 C2.74509346,224.272467 4.52178505,223.332673 6.40137383,222.313991 C8.25352336,223.332673 10.0542243,224.272467 10.0542243,226.333841 C10.0542243,228.501542 8.20207477,229.389888 6.40137383,229.389888 Z M6.40137383,212.260935 C3.73633645,212.260935 0.786616822,213.437393 0.786616822,216.466 C0.786616822,218.65771 2.37809346,219.913056 4.0244486,220.983187 C1.67496262,222.132206 0.056046729,223.751121 0.056046729,226.570505 C0.056046729,230.436009 2.9268785,231.845701 6.40137383,231.845701 C9.84842991,231.845701 12.7467009,230.436009 12.7467009,226.570505 C12.7467009,223.751121 11.127785,222.132206 8.75085981,220.983187 C10.4212243,219.913056 12.0127009,218.65771 12.0127009,216.466 C12.0127009,213.437393 9.06298131,212.260935 6.40137383,212.260935 Z M6.40137383,214.716748 C7.68072897,214.716748 9.32365421,215.107757 9.32365421,216.699234 C9.32365421,218.187813 7.57440187,219.206495 6.40137383,219.676393 C5.22491589,219.206495 3.47566355,218.187813 3.47566355,216.699234 C3.47566355,215.107757 5.12201869,214.716748 6.40137383,214.716748 Z" id="Fill-31"></path>
            <polyline id="Fill-32" points="72.5436916 210.302458 72.5436916 230.247364 75.9015701 230.247364 75.9015701 206.519271 72.2830187 206.519271 66.5139159 211.34515 66.5139159 215.515916 72.5436916 210.302458"></polyline>
            <path d="M91.2881308,227.184458 L91.2881308,226.697411 C91.2881308,223.956916 93.8639907,222.036168 95.980243,220.633336 C99.1769159,218.578822 102.304991,216.918748 102.304991,212.614215 C102.304991,208.247944 98.8510748,206.097393 94.7763458,206.097393 C92.6223645,206.097393 90.1151028,206.749075 88.3555607,208.086738 L88.3555607,211.70186 C90.180271,210.367626 92.9825047,209.160299 95.2976916,209.160299 C97.1875701,209.160299 98.9471121,210.823804 98.9471121,212.744551 C98.9471121,215.094037 96.3060841,216.592907 94.5465421,217.700766 C89.9847664,220.602467 87.9302523,222.849056 87.9302523,228.456953 L87.9302523,230.247364 L102.010019,230.247364 L102.010019,227.184458 L91.2881308,227.184458" id="Fill-33"></path>
            <path d="M124.503346,206.519271 L110.162907,206.519271 L110.162907,209.585607 L120.233112,209.585607 L114.138168,215.810888 L114.138168,218.383318 L116.744897,218.383318 C119.612299,218.383318 122.092121,219.590645 122.092121,222.753019 C122.092121,226.176065 119.22129,227.47943 116.223551,227.47943 C114.073,227.47943 112.018486,226.988953 110.162907,225.781626 L110.162907,229.139505 C112.148822,229.986692 114.103869,230.542336 116.28872,230.542336 C121.04943,230.542336 125.44657,228.131112 125.44657,222.849056 C125.44657,218.643991 122.613467,216.006393 118.538738,215.810888 L124.503346,209.84628 L124.503346,206.519271" id="Fill-34"></path>
            <polyline id="Fill-35" points="145.007327 221.971 145.007327 217.079953 141.649449 217.079953 141.649449 221.971 135.911215 221.971 143.08315 206.519271 139.629234 206.519271 132.652804 221.514822 132.652804 225.033907 141.649449 225.033907 141.649449 230.247364 145.007327 230.247364 145.007327 225.033907 147.905598 225.033907 147.905598 221.971 145.007327 221.971"></polyline>
            <path d="M159.738776,209.585607 L168.735421,209.585607 L168.735421,206.519271 L156.775336,206.519271 L156.058486,217.536131 L160.098916,217.244589 C162.023093,217.114252 166.032654,217.536131 166.032654,221.741196 C166.032654,226.237804 161.79329,227.47943 157.979234,227.47943 L156.058486,227.47943 L156.058486,230.542336 L157.166346,230.542336 C160.098916,230.542336 169.387103,229.791187 169.387103,221.775495 C169.387103,216.297935 165.020832,214.181682 160.133215,214.181682 L159.351196,214.181682 L159.738776,209.585607" id="Fill-36"></path>
            <path d="M201.240645,206.097393 C198.047402,206.097393 195.471542,206.454103 194.363682,209.681645 C193.482196,212.257505 193.320991,215.289542 193.320991,217.992308 C193.320991,220.894009 193.482196,227.023252 195.636178,229.108636 C196.840075,230.281664 199.350766,230.542336 201.240645,230.542336 C203.099654,230.542336 205.641215,230.281664 206.814243,229.108636 C208.999093,227.023252 209.160299,220.894009 209.160299,217.992308 C209.160299,215.289542 208.999093,212.257505 208.117607,209.681645 C207.009748,206.454103 204.403019,206.097393 201.240645,206.097393 Z M201.240645,209.160299 C203.847374,209.160299 205.020402,209.259766 205.44571,211.767028 C205.737252,213.560869 205.802421,216.493439 205.802421,218.352449 C205.802421,220.077692 205.706383,225.359748 204.794028,226.597944 C204.173215,227.445131 202.348505,227.47943 201.240645,227.47943 C200.132785,227.47943 198.308075,227.445131 197.687262,226.597944 C196.744037,225.359748 196.678869,220.077692 196.678869,218.352449 C196.678869,216.493439 196.709738,213.560869 197.035579,211.767028 C197.460888,209.259766 198.633916,209.160299 201.240645,209.160299 Z" id="Fill-37"></path>
            <path d="M223.699673,206.097393 C220.50643,206.097393 217.93057,206.454103 216.82271,209.681645 C215.941224,212.257505 215.780019,215.289542 215.780019,217.992308 C215.780019,220.894009 215.941224,227.023252 218.095206,229.108636 C219.299103,230.281664 221.809794,230.542336 223.699673,230.542336 C225.558682,230.542336 228.100243,230.281664 229.273271,229.108636 C231.458121,227.023252 231.619327,220.894009 231.619327,217.992308 C231.619327,215.289542 231.458121,212.257505 230.576636,209.681645 C229.468776,206.454103 226.862047,206.097393 223.699673,206.097393 Z M223.699673,209.160299 C226.306402,209.160299 227.47943,209.259766 227.904738,211.767028 C228.19628,213.560869 228.261449,216.493439 228.261449,218.352449 C228.261449,220.077692 228.165411,225.359748 227.253056,226.597944 C226.632243,227.445131 224.807533,227.47943 223.699673,227.47943 C222.591813,227.47943 220.767103,227.445131 220.14629,226.597944 C219.203065,225.359748 219.137897,220.077692 219.137897,218.352449 C219.137897,216.493439 219.168766,213.560869 219.494607,211.767028 C219.919916,209.259766 221.092944,209.160299 223.699673,209.160299 Z" id="Fill-38"></path>
            <path d="M246.158701,206.097393 C242.965458,206.097393 240.389598,206.454103 239.281738,209.681645 C238.400252,212.257505 238.239047,215.289542 238.239047,217.992308 C238.239047,220.894009 238.400252,227.023252 240.554234,229.108636 C241.758131,230.281664 244.268822,230.542336 246.158701,230.542336 C248.01771,230.542336 250.559271,230.281664 251.732299,229.108636 C253.91715,227.023252 254.078355,220.894009 254.078355,217.992308 C254.078355,215.289542 253.91715,212.257505 253.035664,209.681645 C251.927804,206.454103 249.321075,206.097393 246.158701,206.097393 Z M246.158701,209.160299 C248.76543,209.160299 249.938458,209.259766 250.363766,211.767028 C250.655308,213.560869 250.720477,216.493439 250.720477,218.352449 C250.720477,220.077692 250.624439,225.359748 249.712084,226.597944 C249.091271,227.445131 247.266561,227.47943 246.158701,227.47943 C245.050841,227.47943 243.226131,227.445131 242.605318,226.597944 C241.662093,225.359748 241.596925,220.077692 241.596925,218.352449 C241.596925,216.493439 241.627794,213.560869 241.953636,211.767028 C242.378944,209.259766 243.551972,209.160299 246.158701,209.160299 Z" id="Fill-39"></path>
            <path d="M268.617729,206.097393 C265.424486,206.097393 262.848626,206.454103 261.740766,209.681645 C260.85928,212.257505 260.698075,215.289542 260.698075,217.992308 C260.698075,220.894009 260.85928,227.023252 263.013262,229.108636 C264.217159,230.281664 266.72785,230.542336 268.617729,230.542336 C270.476738,230.542336 273.018299,230.281664 274.191327,229.108636 C276.376178,227.023252 276.537383,220.894009 276.537383,217.992308 C276.537383,215.289542 276.376178,212.257505 275.494692,209.681645 C274.386832,206.454103 271.780103,206.097393 268.617729,206.097393 Z M268.617729,209.160299 C271.224458,209.160299 272.397486,209.259766 272.822794,211.767028 C273.114336,213.560869 273.179505,216.493439 273.179505,218.352449 C273.179505,220.077692 273.083467,225.359748 272.171112,226.597944 C271.550299,227.445131 269.725589,227.47943 268.617729,227.47943 C267.509869,227.47943 265.685159,227.445131 265.064346,226.597944 C264.121121,225.359748 264.055953,220.077692 264.055953,218.352449 C264.055953,216.493439 264.086822,213.560869 264.412664,211.767028 C264.837972,209.259766 266.011,209.160299 268.617729,209.160299 Z" id="Fill-40"></path>
            <path d="M291.076757,206.097393 C287.883514,206.097393 285.307654,206.454103 284.199794,209.681645 C283.318308,212.257505 283.157103,215.289542 283.157103,217.992308 C283.157103,220.894009 283.318308,227.023252 285.47229,229.108636 C286.676187,230.281664 289.186879,230.542336 291.076757,230.542336 C292.935766,230.542336 295.477327,230.281664 296.650355,229.108636 C298.835206,227.023252 298.996411,220.894009 298.996411,217.992308 C298.996411,215.289542 298.835206,212.257505 297.95372,209.681645 C296.84586,206.454103 294.239131,206.097393 291.076757,206.097393 Z M291.076757,209.160299 C293.683486,209.160299 294.856514,209.259766 295.281822,211.767028 C295.573364,213.560869 295.638533,216.493439 295.638533,218.352449 C295.638533,220.077692 295.542495,225.359748 294.63014,226.597944 C294.009327,227.445131 292.184617,227.47943 291.076757,227.47943 C289.968897,227.47943 288.144187,227.445131 287.523374,226.597944 C286.58015,225.359748 286.514981,220.077692 286.514981,218.352449 C286.514981,216.493439 286.54585,213.560869 286.871692,211.767028 C287.297,209.259766 288.470028,209.160299 291.076757,209.160299 Z" id="Fill-41"></path>
            <path d="M355.051374,231.609037 C358.313215,228.161981 362.51828,223.620785 362.51828,218.973262 C362.51828,214.977421 360.196234,212.260935 356.172953,212.260935 C352.307449,212.260935 349.69729,214.768196 349.69729,218.633701 C349.69729,222.080757 352.204551,224.742364 355.651607,224.742364 C356.433626,224.742364 357.243084,224.560579 357.870757,224.245028 L357.922206,224.299907 L357.949645,224.272467 C356.172953,226.988953 353.823467,229.338439 351.473981,231.609037 L355.051374,231.609037 Z M356.172953,214.716748 C358.392103,214.716748 359.829234,216.256776 359.829234,218.499935 C359.829234,220.695075 358.340654,222.286551 356.172953,222.286551 C353.953804,222.286551 352.386336,220.773963 352.386336,218.554813 C352.386336,216.126439 353.772019,214.716748 356.172953,214.716748 Z" id="Fill-42"></path>
        </g>
    </g>
</svg>